<svg xmlns="http://www.w3.org/2000/svg" viewBox="0 0 96 96">
  <defs>
    <linearGradient id="eng-bg" x1="12%" y1="8%" x2="88%" y2="92%">
      <stop offset="0" stop-color="#3d305d"/>
      <stop offset="1" stop-color="#18122e"/>
    </linearGradient>
    <linearGradient id="eng-gear" x1="0%" y1="0%" x2="100%" y2="100%">
      <stop offset="0" stop-color="#c9b2ff"/>
      <stop offset="1" stop-color="#6a8bff"/>
    </linearGradient>
  </defs>
  <rect x="6" y="6" width="84" height="84" rx="20" fill="url(#eng-bg)"/>
  <path d="M48 28a16 16 0 1 1 0 32 16 16 0 0 1 0-32z" fill="url(#eng-gear)"/>
  <path d="M48 32a12 12 0 1 1 0 24 12 12 0 0 1 0-24z" fill="#1b1d3a" opacity="0.55"/>
  <path d="M48 30v6M48 60v6M30 48h6M60 48h6M36.5 36.5l4.2 4.2M55.3 55.3l4.2 4.2M36.5 59.5l4.2-4.2M55.3 40.7l4.2-4.2" stroke="#efe7ff" stroke-width="3" stroke-linecap="round" opacity="0.7"/>
</svg>
