<svg xmlns="http://www.w3.org/2000/svg" aria-hidden="true" style="display:none">
  <symbol id="icon-buildings" viewBox="0 0 24 24">
    <path fill="currentColor" d="M5 4.5a1 1 0 0 1 1-1h4a1 1 0 0 1 1 1V20H8.5v-4.5h-2V20H5Z"/>
    <path fill="currentColor" d="M13 8a1 1 0 0 1 1-1h4.5a1 1 0 0 1 1 1v12H13Z" opacity=".85"/>
    <path fill="currentColor" d="M7.5 6.5H9V8H7.5zm0 3.5H9v1.5H7.5zm0 3.5H9V15H7.5zm7-2H16V13h-1.5zm0 3.5H16v1.5h-1.5z" opacity=".6"/>
  </symbol>
  <symbol id="icon-crystal" viewBox="0 0 24 24">
    <path fill="currentColor" d="m5.2 9.5 6-7.5a1 1 0 0 1 1.6 0l6 7.5a1 1 0 0 1 .05 1.18l-6 9.5a1 1 0 0 1-1.7 0l-6-9.5A1 1 0 0 1 5.2 9.5m2.38.5L12 17l4.42-7L12 4.56Z"/>
    <path fill="currentColor" d="M12 4.5v15" opacity=".55"/>
    <path fill="currentColor" d="M6.5 10h11" opacity=".4"/>
  </symbol>
  <symbol id="icon-energy" viewBox="0 0 24 24">
    <path fill="currentColor" d="m13.37 2.3-6.4 9.6A1 1 0 0 0 7.8 13h4.02l-1.19 8.08a1 1 0 0 0 1.84.7l6.4-9.6A1 1 0 0 0 18.2 11h-4.02l1.19-8.08a1 1 0 0 0-1.84-.7Z"/>
  </symbol>
  <symbol id="icon-hydrogen" viewBox="0 0 24 24">
    <path fill="currentColor" d="M12.1 3.2a1 1 0 0 0-1.7 0C8.44 6.5 6 9.66 6 13a6 6 0 0 0 12 0c0-3.34-2.44-6.5-5.9-9.8M12 19a4 4 0 0 1-4-4c0-2.52 1.82-5.24 4-7.7 2.18 2.46 4 5.18 4 7.7a4 4 0 0 1-4 4"/>
    <circle cx="12" cy="14" r="1.6" fill="currentColor" opacity=".45"/>
  </symbol>
  <symbol id="icon-logout" viewBox="0 0 24 24">
    <path fill="currentColor" d="M5.5 4A1.5 1.5 0 0 1 7 2.5h5A1.5 1.5 0 0 1 13.5 4v4h-2V5H7v14h4.5v-3h2v4a1.5 1.5 0 0 1-1.5 1.5H7A1.5 1.5 0 0 1 5.5 20Z"/>
    <path fill="currentColor" d="m13.8 8.8 1.4-1.4L21 13l-5.8 5.6-1.4-1.4 3.08-3H11v-2h6.84Z"/>
  </symbol>
  <symbol id="icon-metal" viewBox="0 0 24 24">
    <path fill="currentColor" d="M12 3.25a1 1 0 0 1 .47.12l6 3.3a1 1 0 0 1 .53.88v9a1 1 0 0 1-.53.88l-6 3.3a1 1 0 0 1-.94 0l-6-3.3a1 1 0 0 1-.53-.88v-9a1 1 0 0 1 .53-.88l6-3.3a1 1 0 0 1 .47-.12m0 1.7L7 7.7V16l5 2.75L17 16V7.7Z"/>
    <path fill="currentColor" d="M9.5 11.5h5v1h-5zm0-2.5h5v1h-5zm0 5h5v1h-5z" opacity=".65"/>
  </symbol>
  <symbol id="icon-overview" viewBox="0 0 24 24">
    <circle cx="12" cy="12" r="3.2" fill="currentColor"/>
    <path fill="none" stroke="currentColor" stroke-linecap="round" stroke-width="1.4" d="M4.5 9.5c2.1-3.6 6.65-5.3 10.55-3.8 1.96.73 3.68 2.1 4.95 3.8m-.5 5c-2.1 3.6-6.65 5.3-10.55 3.8-1.96-.73-3.68-2.1-4.95-3.8"/>
    <circle cx="6" cy="9" r="1.2" fill="currentColor"/>
    <circle cx="18" cy="15" r="1.2" fill="currentColor"/>
  </symbol>
  <symbol id="icon-planet" viewBox="0 0 24 24">
    <circle cx="12" cy="12" r="6" fill="currentColor" opacity=".85"/>
    <path fill="none" stroke="currentColor" stroke-linecap="round" stroke-width="1.5" d="M4 14c2.5-2.5 9-5 14.5-3.8 1.45.33 2.76.97 3.5 1.8"/>
    <path fill="none" stroke="currentColor" stroke-linecap="round" stroke-width="1.5" d="M20 10c-2.5 2.5-9 5-14.5 3.8-1.45-.33-2.76-.97-3.5-1.8" opacity=".6"/>
  </symbol>
  <symbol id="icon-research" viewBox="0 0 24 24">
    <path fill="currentColor" d="M10 3.5a1 1 0 0 0-1 1V5h1.5v3.68l-3.18 5.13A3.5 3.5 0 0 0 10.1 20h3.8a3.5 3.5 0 0 0 2.78-6.19L13.5 8.68V5H15V4.5a1 1 0 0 0-1-1Z"/>
    <path fill="currentColor" d="M9 15.5h6" opacity=".4"/>
    <path fill="currentColor" d="M9.5 13h5" opacity=".25"/>
  </symbol>
  <symbol id="icon-shipyard" viewBox="0 0 24 24">
    <path fill="currentColor" d="M12 3.5a1 1 0 0 0-.58.18l-7 5A1 1 0 0 0 4 9.5v2a9 9 0 0 0 16 0v-2a1 1 0 0 0-.42-.82l-7-5a1 1 0 0 0-.58-.18Zm0 2.12 5 3.57v1.81a7 7 0 0 1-10 0V9.19Z"/>
    <path fill="currentColor" d="M12 12.5c-1.93 0-3.5 1.9-3.5 4.25S10.07 21 12 21s3.5-1.9 3.5-4.25S13.93 12.5 12 12.5Zm0 2c.83 0 1.5.98 1.5 2.25S12.83 19 12 19s-1.5-.98-1.5-2.25.67-2.25 1.5-2.25Z" opacity=".65"/>
  </symbol>
  <symbol id="icon-tech" viewBox="0 0 24 24">
    <path fill="none" stroke="currentColor" stroke-linecap="round" stroke-width="1.6" d="M5 5h4v14H5m10-10h4v10h-4M9 12h6" opacity=".9"/>
    <circle cx="9" cy="5" r="1.7" fill="currentColor"/>
    <circle cx="15" cy="9" r="1.7" fill="currentColor"/>
    <circle cx="9" cy="19" r="1.7" fill="currentColor"/>
    <circle cx="19" cy="19" r="1.7" fill="currentColor"/>
  </symbol>
  <symbol id="icon-time" viewBox="0 0 24 24">
    <circle cx="12" cy="12" r="8.5" fill="none" stroke="currentColor" stroke-width="1.6" opacity=".85"/>
    <path fill="none" stroke="currentColor" stroke-linecap="round" stroke-width="1.8" d="M12 7v5l3 2"/>
    <circle cx="12" cy="12" r="0.9" fill="currentColor"/>
  </symbol>
</svg>
